<svg width="100" height="100" viewBox="0 0 100 100" xmlns="http://www.w3.org/2000/svg">
  <g fill="none" stroke="#FFFFFF" stroke-width="0.5" opacity="0.15">
    <path d="M10,10 L30,10 L30,30 L50,30 L50,10 L70,10 L70,30 L90,30 L90,50 L70,50 L70,70 L90,70 L90,90 L70,90 L70,70 L50,70 L50,90 L30,90 L30,70 L10,70 L10,50 L30,50 L30,30 L10,30 Z" />
    <circle cx="10" cy="10" r="3" />
    <circle cx="30" cy="30" r="3" />
    <circle cx="50" cy="10" r="3" />
    <circle cx="70" cy="30" r="3" />
    <circle cx="90" cy="50" r="3" />
    <circle cx="70" cy="70" r="3" />
    <circle cx="90" cy="90" r="3" />
    <circle cx="50" cy="90" r="3" />
    <circle cx="30" cy="70" r="3" />
    <circle cx="10" cy="50" r="3" />
  </g>
</svg> 